{"glyphs":{":":{"x_min":0,"x_max":239,"ha":239,"o":"m 69 111 l 170 111 l 170 0 l 69 0 z m 69 511 l 170 511 l 170 399 l 69 399 z"},"$":{"x_min":0,"x_max":546,"ha":546,"o":"m 268 105 q 420 105 420 202 q 420 241 392 262 q 365 282 323 296 q 281 309 233 320 q 185 331 143 351 q 101 371 74 405 q 46 439 46 490 q 46 540 62 571 q 77 602 104 623 q 156 665 245 671 l 234 760 l 307 760 l 296 671 q 385 667 440 624 q 498 579 498 495 l 498 483 l 403 483 l 403 497 q 403 541 366 564 q 330 586 274 586 q 218 586 180 566 q 141 547 141 505 q 141 457 200 431 q 226 419 260 410 q 293 402 328 392 q 362 383 396 370 q 429 358 456 338 q 514 294 514 216 q 514 119 452 68 q 396 23 296 19 l 307 -66 l 234 -66 l 244 20 q 93 30 48 126 q 31 161 31 209 l 32 227 l 127 227 l 126 208 q 126 155 166 130 q 206 105 268 105 z"},"?":{"x_min":0,"x_max":502,"ha":502,"o":"m 205 111 l 309 111 l 309 0 l 205 0 z m 29 458 q 26 470 26 496 q 26 521 36 556 q 47 592 72 623 q 133 696 246 696 l 252 696 q 364 696 420 621 q 444 590 453 557 q 462 524 462 492 q 462 459 450 429 q 439 399 422 377 q 405 355 384 339 q 364 323 347 308 q 307 271 307 234 l 307 185 l 207 185 l 207 249 q 207 296 248 338 q 265 356 285 372 q 305 388 322 406 q 363 449 363 498 q 363 538 337 568 q 304 607 245 607 q 178 607 146 563 q 125 534 125 495 l 127 458 z"},"<":{"x_min":0,"x_max":615,"ha":615,"o":"m 44 307 l 553 504 l 553 414 l 124 254 l 553 94 l 553 4 l 44 200 z"},"'":{"x_min":0,"x_max":210,"ha":210,"o":"m 85 407 l 64 539 l 64 686 l 146 686 l 146 539 l 124 407 z"},"=":{"x_min":0,"x_max":615,"ha":615,"o":"m 55 318 l 55 402 l 559 402 l 559 318 z m 55 106 l 55 189 l 559 189 l 559 106 z"},"a":{"x_min":0,"x_max":585,"ha":585,"o":"m 390 234 q 262 234 219 220 q 176 207 159 188 q 142 170 142 134 q 142 65 247 65 q 303 65 346 104 q 390 145 390 214 z m 394 82 q 333 -10 215 -10 q 99 -10 62 62 q 48 91 48 142 q 48 193 73 226 q 98 260 143 278 q 215 307 390 307 l 390 354 q 390 393 376 410 q 345 446 273 446 q 203 446 175 412 q 159 392 159 366 l 159 354 l 67 354 q 65 364 65 387 q 65 409 81 436 q 97 463 125 482 q 185 521 275 521 l 284 521 q 386 521 435 480 q 484 440 484 365 l 484 100 q 484 81 492 73 q 501 65 512 65 q 536 65 558 79 l 558 10 q 525 -10 481 -10 q 436 -10 416 16 q 396 42 394 82 z"},"L":{"x_min":0,"x_max":536,"ha":536,"o":"m 92 0 l 92 686 l 190 686 l 190 89 l 505 89 l 519 0 z"},"3":{"x_min":0,"x_max":615,"ha":615,"o":"m 156 191 q 156 136 193 108 q 230 79 299 79 q 367 79 408 107 q 449 135 449 194 q 449 254 402 282 q 364 304 295 304 l 220 304 l 220 394 l 297 394 q 389 394 422 454 q 433 474 433 502 q 433 530 422 550 q 411 570 392 583 q 358 607 299 607 q 212 607 182 547 q 172 527 172 501 l 172 492 l 74 492 l 74 510 q 74 594 138 645 q 203 696 299 696 l 308 696 q 405 696 467 646 q 531 593 531 510 q 531 449 500 414 q 469 378 422 356 l 423 353 q 477 336 512 294 q 547 253 547 184 q 547 98 479 44 q 412 -10 308 -10 l 296 -10 q 184 -10 120 47 q 58 101 58 194 l 58 202 l 156 202 z"},";":{"x_min":0,"x_max":239,"ha":239,"o":"m 69 511 l 170 511 l 170 399 l 69 399 z m 83 -124 l 110 0 l 69 0 l 69 111 l 170 111 l 170 26 l 135 -124 z"},"J":{"x_min":0,"x_max":526,"ha":526,"o":"m 29 208 l 127 208 l 127 181 q 127 136 158 108 q 188 79 235 79 q 281 79 311 106 q 341 134 341 181 l 341 686 l 439 686 l 439 187 q 439 92 380 40 q 325 -10 236 -10 l 227 -10 q 89 -10 44 101 q 29 138 29 187 z"},"V":{"x_min":0,"x_max":603,"ha":603,"o":"m 309 133 l 503 686 l 598 686 l 354 0 l 249 0 l 5 686 l 110 686 l 303 133 z"},"\"":{"x_min":0,"x_max":364,"ha":364,"o":"m 146 539 l 125 407 l 86 407 l 64 539 l 64 686 l 146 686 z m 300 539 q 286 459 278 407 l 239 407 l 218 539 l 218 686 l 300 686 z"},"7":{"x_min":0,"x_max":615,"ha":615,"o":"m 180 0 q 180 283 430 597 l 73 597 l 73 686 l 555 686 l 555 633 q 380 427 316 216 q 292 134 292 51 l 292 28 q 292 18 294 0 z"},"S":{"x_min":0,"x_max":627,"ha":627,"o":"m 151 215 l 150 194 q 150 135 194 107 q 239 79 314 79 q 389 79 432 106 q 476 134 476 182 q 476 230 446 252 q 416 275 370 289 q 325 303 272 315 q 219 327 174 349 q 128 371 98 408 q 68 445 68 501 q 68 557 88 592 q 107 627 140 650 q 205 696 314 696 q 420 696 485 651 q 556 602 556 504 l 556 492 l 458 492 l 458 507 q 458 556 418 582 q 378 607 316 607 q 211 607 178 557 q 166 540 166 516 q 166 476 196 455 q 226 434 272 420 q 317 406 370 394 q 423 381 468 360 q 514 338 544 302 q 574 265 574 205 q 574 144 554 104 q 534 63 499 38 q 432 -10 313 -10 q 132 -10 73 100 q 52 139 52 195 l 53 215 z"},"}":{"x_min":0,"x_max":315,"ha":315,"o":"m 275 224 q 225 224 205 194 q 198 183 198 167 l 198 -19 q 198 -137 100 -154 q 71 -159 40 -159 l 40 -109 q 74 -109 89 -98 q 119 -76 119 -32 q 119 11 122 59 q 124 107 126 156 q 128 205 147 232 q 166 259 215 259 l 215 268 q 166 268 147 295 q 128 322 126 371 q 124 420 122 468 q 119 516 119 552 q 119 587 112 600 q 104 614 93 622 q 74 636 40 636 l 40 686 q 113 686 150 661 q 198 628 198 546 l 198 360 q 198 317 248 306 q 261 303 275 303 z"},"Z":{"x_min":0,"x_max":596,"ha":596,"o":"m 32 0 l 32 38 l 397 597 l 56 597 l 56 686 l 547 686 l 547 648 l 181 89 l 555 89 l 555 0 z"},"x":{"x_min":0,"x_max":519,"ha":519,"o":"m 18 0 l 206 259 l 28 511 l 140 511 l 263 337 l 389 511 l 492 511 l 313 265 l 501 0 l 389 0 l 256 187 l 121 0 z"},")":{"x_min":0,"x_max":288,"ha":288,"o":"m 240 265 q 240 148 199 40 q 158 -69 81 -157 l 29 -157 q 118 -16 147 152 q 157 209 157 265 q 157 320 147 377 q 137 434 120 488 q 86 594 29 686 l 81 686 q 158 598 199 490 q 240 381 240 265 z"},"&":{"x_min":0,"x_max":662,"ha":662,"o":"m 291 696 q 328 696 361 689 l 361 598 q 332 607 305 607 q 277 607 252 600 q 228 594 210 582 q 171 554 171 503 q 171 458 208 426 q 247 395 306 395 l 429 395 l 457 538 l 525 538 l 525 395 l 633 395 l 633 306 l 525 306 l 525 0 l 300 0 q 197 0 130 46 q 58 97 58 193 q 58 316 184 354 l 187 356 q 139 377 106 412 q 74 448 74 501 q 74 554 92 589 q 111 624 142 648 q 172 672 213 684 q 254 696 291 696 z m 313 306 q 238 306 197 279 q 156 252 156 198 q 156 142 202 114 q 244 89 314 89 l 427 89 l 427 306 z"},"_":{"x_min":0,"x_max":694,"ha":694,"o":"m 97 -124 l 97 -64 l 597 -64 l 597 -124 z"},"v":{"x_min":0,"x_max":512,"ha":512,"o":"m 306 0 l 206 0 l 12 511 l 112 511 l 258 120 l 262 120 l 408 511 l 500 511 z"},"O":{"x_min":0,"x_max":690,"ha":690,"o":"m 531 388 q 531 554 420 594 q 385 607 345 607 q 304 607 270 594 q 236 582 212 556 q 159 500 159 388 l 159 298 q 159 132 270 92 q 304 79 345 79 q 385 79 420 92 q 454 104 478 130 q 531 186 531 298 z m 629 298 q 629 148 546 66 q 468 -10 345 -10 q 222 -10 144 66 q 61 148 61 298 l 61 388 q 61 538 144 620 q 222 696 345 696 q 468 696 546 620 q 629 538 629 388 z"},"(":{"x_min":0,"x_max":289,"ha":289,"o":"m 49 264 q 49 381 90 490 q 131 598 208 686 l 260 686 q 170 543 141 377 q 131 320 131 265 q 131 209 141 152 q 151 95 168 41 q 201 -62 260 -157 l 208 -157 q 131 -69 90 39 q 49 147 49 264 z"},"C":{"x_min":0,"x_max":663,"ha":663,"o":"m 609 261 q 609 128 530 56 q 459 -10 344 -10 q 216 -10 142 66 q 62 147 62 298 l 62 388 q 62 538 142 620 q 217 696 344 696 q 461 696 532 628 q 609 556 609 423 l 511 423 q 511 515 464 564 q 421 607 344 607 q 212 607 174 488 q 160 446 160 388 l 160 298 q 160 132 269 92 q 303 79 342 79 q 381 79 412 90 q 444 100 466 122 q 515 171 515 261 z"},"W":{"x_min":0,"x_max":916,"ha":916,"o":"m 455 496 l 310 0 l 210 0 l 14 686 l 119 686 l 264 169 l 270 169 l 416 686 l 511 686 l 656 169 l 662 169 l 808 686 l 903 686 l 702 0 l 602 0 l 462 496 z"},"A":{"x_min":0,"x_max":652,"ha":652,"o":"m 484 149 l 156 149 l 99 0 l 4 0 l 272 686 l 380 686 l 648 0 l 542 0 z m 318 568 l 191 238 l 450 238 l 324 568 z"},"f":{"x_min":0,"x_max":338,"ha":338,"o":"m 103 580 q 103 728 222 728 q 278 728 316 709 l 316 640 q 285 653 265 653 q 244 653 234 651 q 224 649 216 642 q 197 628 197 590 l 197 511 l 316 511 l 316 436 l 197 436 l 197 0 l 103 0 l 103 436 l 47 436 l 47 511 l 103 511 z"},"Q":{"x_min":0,"x_max":690,"ha":690,"o":"m 618 -112 q 559 -145 499 -145 q 438 -145 406 -132 q 373 -119 352 -99 q 315 -63 305 -8 q 196 5 131 79 q 61 160 61 298 l 61 388 q 61 538 144 620 q 222 696 345 696 q 468 696 546 620 q 629 538 629 388 l 629 298 q 629 166 564 86 q 505 12 402 -5 q 409 -33 426 -46 q 458 -70 501 -70 q 546 -70 606 -46 l 618 -42 z m 531 388 q 531 554 420 594 q 385 607 345 607 q 304 607 270 594 q 236 582 212 556 q 159 500 159 388 l 159 298 q 159 132 270 92 q 304 79 345 79 q 385 79 420 92 q 454 104 478 130 q 531 186 531 298 z"},"w":{"x_min":0,"x_max":811,"ha":811,"o":"m 402 357 l 286 0 l 188 0 l 20 511 l 117 511 l 236 137 l 240 137 l 361 511 l 453 511 l 572 137 l 576 137 l 697 511 l 789 511 l 622 0 l 524 0 l 406 357 z"},"-":{"x_min":0,"x_max":391,"ha":391,"o":"m 69 319 l 322 319 l 322 221 l 69 221 z"},"E":{"x_min":0,"x_max":593,"ha":593,"o":"m 92 0 l 92 686 l 542 686 l 529 597 l 190 597 l 190 395 l 497 395 l 497 306 l 190 306 l 190 89 l 535 89 l 549 0 z"},"s":{"x_min":0,"x_max":534,"ha":534,"o":"m 45 138 l 46 160 l 139 160 l 139 150 q 139 87 219 70 q 243 65 282 65 q 321 65 356 84 q 391 102 391 136 q 391 170 366 186 q 342 201 305 210 q 268 218 226 225 q 183 232 146 248 q 109 263 84 290 q 60 318 60 369 q 60 440 116 480 q 172 521 269 521 l 278 521 q 367 521 421 480 q 473 440 473 382 l 472 364 l 379 364 l 379 373 q 379 446 266 446 q 175 446 158 401 q 154 389 154 379 q 154 351 178 337 q 203 323 240 315 q 277 307 320 300 q 362 292 399 276 q 485 240 485 154 q 485 67 422 26 q 366 -10 268 -10 l 253 -10 q 151 -10 96 36 q 45 78 45 138 z"},">":{"x_min":0,"x_max":615,"ha":615,"o":"m 490 254 q 178 370 62 414 l 62 504 l 571 307 l 571 200 l 62 4 l 62 94 q 169 134 276 174 q 382 213 490 254 z"},"l":{"x_min":0,"x_max":268,"ha":268,"o":"m 87 0 l 87 720 l 181 720 l 181 0 z"},"8":{"x_min":0,"x_max":615,"ha":615,"o":"m 431 350 q 483 326 515 289 q 547 252 547 185 q 547 94 485 42 q 423 -10 307 -10 q 199 -10 134 40 q 67 91 67 185 q 67 251 99 290 q 131 328 183 350 l 183 354 q 136 382 120 405 q 90 448 90 499 q 90 550 106 586 q 122 621 151 646 q 211 696 307 696 q 403 696 463 646 q 524 594 524 505 q 524 422 468 379 q 451 366 431 354 z m 188 501 q 188 456 220 426 q 252 395 307 395 q 362 395 394 426 q 426 456 426 501 q 426 546 394 576 q 362 607 307 607 q 252 607 220 576 q 188 546 188 501 z m 176 242 q 165 220 165 192 q 165 163 176 142 q 187 121 206 107 q 246 79 307 79 q 368 79 408 107 q 449 137 449 192 q 449 247 408 278 q 369 306 307 306 q 209 306 176 242 z"},"\\":{"x_min":0,"x_max":600,"ha":600,"o":"m 15 686 l 95 686 l 585 -171 l 504 -171 z"},"e":{"x_min":0,"x_max":556,"ha":556,"o":"m 145 234 q 148 116 224 78 q 250 65 290 65 q 329 65 354 80 q 379 95 392 115 q 413 147 413 190 l 502 190 q 502 99 442 44 q 382 -10 288 -10 l 284 -10 q 179 -10 116 56 q 51 126 51 245 l 51 265 q 51 384 116 454 q 177 521 281 521 l 288 521 q 383 521 442 463 q 502 405 502 305 l 502 234 z m 283 446 q 227 446 191 412 q 155 377 147 307 l 409 307 l 409 319 q 409 379 372 414 q 338 446 283 446 z"},"b":{"x_min":0,"x_max":583,"ha":583,"o":"m 152 81 l 119 0 l 83 0 l 83 720 l 177 720 l 177 446 q 199 477 238 499 q 277 521 325 521 q 373 521 410 505 q 446 489 473 457 q 531 388 531 267 l 531 256 q 531 124 470 54 q 415 -10 324 -10 q 210 -10 152 81 z m 176 255 q 176 105 253 74 q 277 65 306 65 q 437 65 437 255 q 437 406 359 436 q 335 446 306 446 q 244 446 212 405 q 176 358 176 255 z"},"%":{"x_min":0,"x_max":699,"ha":699,"o":"m 177 0 l 107 0 l 525 686 l 593 686 z m 279 457 q 279 406 246 372 q 212 336 158 336 l 151 336 q 97 336 63 372 q 30 406 30 457 l 30 564 q 30 615 63 650 q 97 685 151 685 l 158 685 q 212 685 246 650 q 279 615 279 564 z m 215 571 q 215 596 200 613 q 184 630 155 630 q 126 630 110 613 q 94 596 94 571 l 94 450 q 94 425 110 408 q 126 391 155 391 q 184 391 200 408 q 215 425 215 450 z m 669 120 q 669 69 636 34 q 602 -1 548 -1 l 541 -1 q 487 -1 453 34 q 420 69 420 120 l 420 227 q 420 278 453 312 q 487 348 541 348 l 548 348 q 602 348 636 312 q 669 278 669 227 z m 605 234 q 605 259 590 276 q 574 293 545 293 q 516 293 500 276 q 484 259 484 234 l 484 113 q 484 88 500 71 q 516 54 545 54 q 574 54 590 71 q 605 88 605 113 z"},"m":{"x_min":0,"x_max":867,"ha":867,"o":"m 389 327 q 389 446 297 446 q 248 446 212 405 q 177 364 177 304 l 177 0 l 83 0 l 83 511 l 151 511 l 164 436 q 223 521 325 521 q 426 521 465 436 q 502 488 542 504 q 583 521 622 521 q 660 521 690 510 q 720 500 742 478 q 789 433 789 344 l 789 0 l 695 0 l 695 327 q 695 446 603 446 q 554 446 518 405 q 483 364 483 304 l 483 0 l 389 0 z"},"#":{"x_min":0,"x_max":643,"ha":643,"o":"m 68 486 l 206 486 l 253 696 l 329 696 l 282 486 l 432 486 l 479 696 l 555 696 l 508 486 l 613 486 l 613 410 l 491 410 l 457 255 l 573 255 l 573 179 l 440 179 l 400 0 l 324 0 l 364 179 l 214 179 l 174 0 l 98 0 l 138 179 l 28 179 l 28 255 l 155 255 l 189 410 l 68 410 z m 231 255 l 381 255 l 415 410 l 265 410 z"},",":{"x_min":0,"x_max":238,"ha":238,"o":"m 83 -124 l 110 0 l 69 0 l 69 111 l 170 111 l 170 26 l 135 -124 z"},"n":{"x_min":0,"x_max":593,"ha":593,"o":"m 164 436 q 229 521 335 521 q 460 521 501 424 q 515 390 515 344 l 515 0 l 421 0 l 421 327 q 421 392 391 419 q 361 446 313 446 q 259 446 218 405 q 177 364 177 304 l 177 0 l 83 0 l 83 511 l 151 511 z"},"h":{"x_min":0,"x_max":593,"ha":593,"o":"m 177 447 q 240 521 335 521 q 460 521 501 424 q 515 390 515 344 l 515 0 l 421 0 l 421 327 q 421 392 391 419 q 361 446 313 446 q 259 446 218 405 q 177 364 177 304 l 177 0 l 83 0 l 83 720 l 177 720 z"},"z":{"x_min":0,"x_max":463,"ha":463,"o":"m 36 0 l 36 38 l 285 436 l 51 436 l 51 511 l 415 511 l 415 474 l 165 75 l 423 75 l 423 0 z"},"B":{"x_min":0,"x_max":651,"ha":651,"o":"m 92 686 l 396 686 q 471 686 524 637 q 576 588 576 518 q 576 449 537 405 q 508 373 456 358 l 456 353 q 541 339 578 260 q 592 229 592 187 q 592 145 577 112 q 562 78 536 54 q 481 0 402 0 l 92 0 z m 376 394 q 417 394 448 424 q 478 452 478 495 q 478 537 448 567 q 418 597 376 597 l 190 597 l 190 394 z m 386 89 q 431 89 462 120 q 494 152 494 197 q 494 242 462 274 q 431 305 386 305 l 190 305 l 190 89 z"},"K":{"x_min":0,"x_max":623,"ha":623,"o":"m 92 686 l 190 686 l 190 329 l 488 686 l 601 686 l 349 383 l 609 0 l 495 0 l 287 308 l 190 206 l 190 0 l 92 0 z"},"R":{"x_min":0,"x_max":670,"ha":670,"o":"m 630 3 q 607 -6 583 -6 q 563 -6 542 0 q 506 10 490 59 q 481 84 481 130 q 481 176 470 210 q 458 245 440 266 q 409 302 364 302 l 190 302 l 190 0 l 92 0 l 92 686 l 384 686 q 525 686 575 592 q 592 560 592 525 q 592 489 582 462 q 573 435 556 412 q 521 364 469 354 l 469 349 q 535 324 565 249 q 579 214 579 170 q 579 125 582 102 q 586 79 592 65 q 604 40 630 31 z m 385 391 q 429 391 462 420 q 494 449 494 492 l 494 496 q 494 539 464 568 q 435 597 385 597 l 190 597 l 190 391 z"},"T":{"x_min":0,"x_max":578,"ha":578,"o":"m 338 597 l 338 0 l 240 0 l 240 597 l 25 597 l 25 686 l 553 686 l 553 597 z"},"P":{"x_min":0,"x_max":624,"ha":624,"o":"m 190 597 l 190 375 l 379 375 q 426 375 461 408 q 495 440 495 486 q 495 532 462 564 q 427 597 379 597 z m 190 286 l 190 0 l 92 0 l 92 686 l 388 686 q 475 686 533 632 q 593 575 593 486 q 593 397 533 340 q 475 286 388 286 z"},"|":{"x_min":0,"x_max":248,"ha":248,"o":"m 84 -199 l 84 721 l 164 721 l 164 -199 z"},"t":{"x_min":0,"x_max":346,"ha":346,"o":"m 250 63 q 276 63 312 78 l 312 8 q 276 -10 219 -10 q 161 -10 130 24 q 99 58 99 136 l 99 436 l 43 436 l 43 511 l 102 511 l 134 674 l 193 674 l 193 511 l 312 511 l 312 436 l 193 436 l 193 131 q 193 74 229 66 q 239 63 250 63 z"},"M":{"x_min":0,"x_max":938,"ha":938,"o":"m 748 0 l 748 571 l 742 571 l 505 0 l 422 0 l 186 571 l 181 571 l 181 0 l 92 0 l 92 686 l 246 686 l 467 146 l 471 146 l 693 686 l 846 686 l 846 0 z"},"g":{"x_min":0,"x_max":568,"ha":568,"o":"m 447 470 q 497 427 497 360 q 497 291 447 247 q 394 200 296 200 l 228 200 q 198 200 178 184 q 158 169 158 145 q 158 121 177 107 q 196 93 228 93 l 421 93 q 481 93 516 56 q 551 19 551 -38 q 551 -109 496 -150 q 445 -188 361 -188 l 160 -188 q 108 -188 72 -150 q 36 -112 36 -68 q 36 -25 57 6 q 78 37 111 51 q 65 80 65 134 q 65 171 86 196 q 108 222 145 235 q 78 273 78 360 q 78 431 128 474 q 182 521 284 521 l 288 521 q 345 521 390 504 q 461 539 471 603 l 551 603 q 551 553 524 518 q 497 483 449 473 z m 171 360 q 171 313 204 294 q 238 275 287 275 q 336 275 370 294 q 404 313 404 360 q 404 407 370 426 q 336 446 287 446 q 238 446 204 426 q 171 407 171 360 z m 380 -113 q 412 -113 435 -94 q 458 -76 458 -52 q 458 -28 442 -12 q 425 3 393 3 l 187 3 q 163 3 146 -14 q 129 -31 129 -55 q 129 -79 146 -96 q 163 -113 187 -113 z"},"j":{"x_min":0,"x_max":260,"ha":260,"o":"m -34 -97 q -1 -112 18 -112 q 37 -112 48 -110 q 58 -107 66 -100 q 83 -84 83 -44 l 83 511 l 177 511 l 177 -15 q 177 -104 150 -145 q 122 -186 52 -186 q 0 -186 -34 -167 z m 81 720 l 179 720 l 179 633 l 81 633 z"},"i":{"x_min":0,"x_max":260,"ha":260,"o":"m 83 0 l 83 511 l 177 511 l 177 0 z m 81 720 l 179 720 l 179 633 l 81 633 z"},"y":{"x_min":0,"x_max":512,"ha":512,"o":"m 47 -95 q 78 -109 97 -109 q 116 -109 129 -106 q 142 -102 156 -90 q 190 -61 211 5 l 12 511 l 112 511 l 259 134 l 263 134 l 408 511 l 500 511 l 309 20 q 267 -83 239 -118 q 211 -153 183 -170 q 155 -186 117 -186 q 78 -186 47 -172 z"},"@":{"x_min":0,"x_max":885,"ha":885,"o":"m 562 251 q 444 251 402 238 q 361 225 345 208 q 329 191 329 158 q 329 92 428 92 q 482 92 520 129 q 562 169 562 233 z m 259 364 q 257 374 257 395 q 257 416 272 441 q 287 466 313 484 q 366 521 454 521 l 463 521 q 559 521 605 482 q 651 444 651 374 l 651 129 q 651 91 688 91 q 761 91 786 208 q 796 253 796 330 q 796 406 771 467 q 746 528 702 567 q 616 642 458 642 q 288 642 194 548 q 97 451 97 266 q 97 81 176 -8 q 256 -98 424 -98 q 480 -98 528 -86 q 575 -73 589 -66 l 589 -126 q 542 -144 491 -148 q 440 -153 424 -153 q 144 -153 65 76 q 38 154 38 268 q 38 381 72 464 q 106 547 164 598 q 273 697 459 697 q 739 697 825 492 q 855 420 855 328 q 855 235 837 178 q 819 121 792 86 q 740 22 668 22 q 592 22 574 74 q 569 90 567 109 l 564 106 q 509 22 398 22 q 289 22 254 90 q 241 116 241 164 q 241 212 264 244 q 288 276 330 293 q 398 320 562 320 l 562 364 q 562 401 548 417 q 520 451 452 451 q 387 451 360 418 q 345 399 345 375 l 345 364 z"},".":{"x_min":0,"x_max":239,"ha":239,"o":"m 69 111 l 170 111 l 170 0 l 69 0 z"},"p":{"x_min":0,"x_max":583,"ha":583,"o":"m 177 65 l 177 -181 l 83 -181 l 83 511 l 153 511 q 158 492 166 441 q 223 521 324 521 q 415 521 470 458 q 531 387 531 255 l 531 244 q 531 123 473 54 q 419 -10 324 -10 q 229 -10 177 65 z m 437 256 q 437 406 360 436 q 336 446 307 446 q 244 446 212 405 q 176 358 176 256 q 176 105 254 74 q 278 65 307 65 q 369 65 401 106 q 437 153 437 256 z"},"X":{"x_min":0,"x_max":631,"ha":631,"o":"m 313 276 l 118 0 l 9 0 l 259 355 l 32 685 l 150 685 l 318 440 q 353 489 384 534 q 415 578 438 612 q 462 645 476 665 l 490 685 l 599 685 l 580 658 q 547 610 481 516 q 415 423 372 361 l 621 0 l 503 0 z"},"*":{"x_min":0,"x_max":468,"ha":468,"o":"m 275 468 l 384 343 l 320 294 l 232 438 l 145 296 l 81 344 l 192 469 l 29 509 l 54 586 l 209 520 l 196 686 l 275 686 l 259 519 l 417 584 l 440 506 z"},"Y":{"x_min":0,"x_max":572,"ha":572,"o":"m 335 265 l 335 0 l 237 0 l 237 265 l -5 686 l 107 686 l 290 367 l 294 367 l 475 686 l 576 686 z"},"c":{"x_min":0,"x_max":544,"ha":544,"o":"m 495 200 q 495 101 435 44 q 377 -10 284 -10 l 276 -10 q 175 -10 115 56 q 51 125 51 243 l 51 267 q 51 385 115 454 q 176 521 275 521 l 283 521 q 376 521 436 464 q 495 406 495 310 l 402 310 q 402 404 332 436 q 309 446 280 446 q 250 446 226 436 q 201 426 183 406 q 145 365 145 291 l 145 237 q 145 148 182 106 q 219 65 283 65 q 346 65 376 103 q 405 141 405 200 z"},"!":{"x_min":0,"x_max":269,"ha":269,"o":"m 85 111 l 186 111 l 186 0 l 85 0 z m 193 686 q 190 663 168 174 l 102 174 q 79 662 78 686 z"},"/":{"x_min":0,"x_max":600,"ha":600,"o":"m 96 -171 l 15 -171 l 505 686 l 585 686 z"},"[":{"x_min":0,"x_max":293,"ha":293,"o":"m 85 -161 l 85 686 l 254 686 l 254 631 l 166 631 l 166 -106 l 254 -106 l 254 -161 z"},"6":{"x_min":0,"x_max":615,"ha":615,"o":"m 177 366 q 239 432 332 432 q 423 432 487 372 q 552 311 552 221 q 552 114 483 50 q 417 -10 316 -10 q 215 -10 148 52 q 79 118 79 223 l 79 465 q 79 561 146 628 q 214 696 310 696 q 412 696 476 636 q 541 574 541 473 l 443 473 q 443 536 406 572 q 370 607 310 607 q 255 607 216 568 q 177 529 177 474 z m 454 211 q 454 271 414 307 q 374 343 316 343 q 257 343 218 307 q 177 270 177 211 q 177 152 218 115 q 257 79 316 79 q 374 79 414 115 q 454 151 454 211 z"},"r":{"x_min":0,"x_max":490,"ha":490,"o":"m 464 361 l 461 323 l 378 323 l 378 345 q 378 380 360 402 q 327 446 279 446 q 226 446 199 400 q 177 362 177 305 l 177 0 l 83 0 l 83 511 l 150 511 l 164 435 q 179 480 246 508 q 275 521 313 521 q 351 521 378 508 q 406 496 425 474 q 464 430 464 361 z"},"2":{"x_min":0,"x_max":615,"ha":615,"o":"m 70 24 q 70 87 106 141 q 129 176 163 201 l 362 351 q 428 403 437 458 q 440 475 440 491 q 440 506 435 526 q 430 545 416 563 q 380 607 311 607 q 225 607 189 545 q 168 509 168 475 l 168 461 q 168 455 169 449 l 71 449 q 70 456 70 459 l 70 467 q 70 532 105 592 q 140 653 216 681 q 256 696 316 696 q 376 696 419 676 q 462 656 488 626 q 538 570 538 495 q 538 432 520 398 q 487 337 416 282 l 225 136 q 200 119 188 106 q 177 94 177 89 l 541 89 l 541 0 l 70 0 z"},"{":{"x_min":0,"x_max":315,"ha":315,"o":"m 40 303 q 91 303 110 333 q 117 344 117 360 l 117 546 q 117 664 216 681 q 244 686 275 686 l 275 636 q 241 636 226 625 q 196 603 196 560 q 196 516 194 468 q 191 420 189 371 q 187 322 168 295 q 149 268 100 268 l 100 259 q 149 259 168 232 q 187 205 189 156 q 191 107 194 59 q 196 11 196 -24 q 196 -60 204 -74 q 211 -87 222 -95 q 241 -109 275 -109 l 275 -159 q 202 -159 165 -134 q 117 -101 117 -19 l 117 167 q 117 195 92 211 q 72 224 40 224 z"},"9":{"x_min":0,"x_max":615,"ha":615,"o":"m 438 320 q 376 254 283 254 q 192 254 128 314 q 63 375 63 465 q 63 572 132 636 q 198 696 299 696 q 400 696 466 634 q 536 568 536 463 l 536 221 q 536 125 468 58 q 401 -10 305 -10 q 203 -10 140 50 q 74 112 74 213 l 172 213 q 172 150 208 114 q 245 79 305 79 q 360 79 399 118 q 438 157 438 212 z m 161 475 q 161 415 201 379 q 241 343 299 343 q 358 343 398 379 q 438 416 438 475 q 438 534 398 571 q 358 607 299 607 q 241 607 201 571 q 161 535 161 475 z"}," ":{"x_min":0,"x_max":244,"ha":244,"o":""},"I":{"x_min":0,"x_max":364,"ha":364,"o":"m 53 686 l 311 686 l 311 597 l 231 597 l 231 89 l 311 89 l 311 0 l 53 0 l 53 89 l 133 89 l 133 597 l 53 597 z"},"H":{"x_min":0,"x_max":693,"ha":693,"o":"m 503 0 l 503 306 l 190 306 l 190 0 l 92 0 l 92 686 l 190 686 l 190 395 l 503 395 l 503 686 l 601 686 l 601 0 z"},"4":{"x_min":0,"x_max":615,"ha":615,"o":"m 50 259 q 186 463 263 696 l 368 696 q 334 573 255 429 q 193 316 143 258 l 373 258 l 373 457 q 408 525 427 594 l 471 594 l 471 258 l 558 258 l 558 169 l 471 169 l 471 0 l 373 0 l 373 169 l 50 169 z"},"~":{"x_min":0,"x_max":689,"ha":689,"o":"m 628 301 q 590 259 530 235 q 500 223 467 223 q 433 223 404 234 q 376 244 348 256 q 319 268 290 278 q 260 289 226 289 q 171 289 110 250 q 84 232 64 211 l 64 296 q 84 317 108 333 q 170 374 227 374 q 259 374 288 364 q 316 353 344 341 q 373 329 402 318 q 432 308 466 308 q 525 308 582 347 q 608 364 628 386 z"},"D":{"x_min":0,"x_max":675,"ha":675,"o":"m 330 89 q 462 89 502 208 q 516 249 516 308 l 516 378 q 516 544 404 584 q 370 597 330 597 l 190 597 l 190 89 z m 92 0 l 92 686 l 330 686 q 454 686 530 610 q 614 528 614 378 l 614 308 q 614 158 530 76 q 454 0 330 0 z"},"^":{"x_min":0,"x_max":596,"ha":596,"o":"m 298 421 l 133 0 l 49 0 l 246 511 l 349 511 l 546 0 l 462 0 q 413 123 298 421 z"},"0":{"x_min":0,"x_max":615,"ha":615,"o":"m 543 221 q 543 121 477 55 q 412 -10 313 -10 l 300 -10 q 200 -10 136 55 q 71 122 71 221 l 71 464 q 71 565 136 630 q 202 696 300 696 l 313 696 q 410 696 477 630 q 543 566 543 464 z m 445 472 q 445 529 406 568 q 367 607 307 607 q 248 607 208 568 q 169 531 169 472 l 169 214 q 169 155 208 118 q 248 79 307 79 q 367 79 406 118 q 445 157 445 214 z"},"F":{"x_min":0,"x_max":550,"ha":550,"o":"m 511 597 l 190 597 l 190 388 l 470 388 l 470 299 l 190 299 l 190 0 l 92 0 l 92 686 l 524 686 z"},"`":{"x_min":0,"x_max":333,"ha":333,"o":"m 183 575 l 68 717 l 69 720 l 158 720 l 253 575 z"},"k":{"x_min":0,"x_max":535,"ha":535,"o":"m 407 0 l 254 190 l 177 110 l 177 0 l 83 0 l 83 720 l 177 720 l 177 226 l 405 511 l 508 511 l 311 263 l 521 0 z"},"u":{"x_min":0,"x_max":618,"ha":618,"o":"m 583 10 q 553 -10 520 -10 q 486 -10 470 -3 q 453 4 442 16 q 423 37 421 74 q 382 17 310 -3 q 286 -10 254 -10 q 221 -10 188 0 q 155 11 130 32 q 78 79 78 167 l 78 511 l 172 511 l 172 184 q 172 119 202 92 q 232 65 280 65 q 334 65 375 106 q 416 147 416 207 l 416 511 l 510 511 l 510 100 q 510 81 518 73 q 527 65 538 65 q 561 65 583 79 z"},"]":{"x_min":0,"x_max":293,"ha":293,"o":"m 39 -161 l 39 -106 l 127 -106 l 127 631 l 39 631 l 39 686 l 208 686 l 208 -161 z"},"U":{"x_min":0,"x_max":680,"ha":680,"o":"m 594 686 l 594 219 q 594 115 526 52 q 458 -10 346 -10 l 333 -10 q 221 -10 154 52 q 86 114 86 219 l 86 686 l 184 686 l 184 221 q 184 159 226 120 q 271 79 342 79 q 413 79 454 118 q 496 158 496 221 l 496 686 z"},"o":{"x_min":0,"x_max":574,"ha":574,"o":"m 428 265 q 428 357 387 404 q 351 446 287 446 q 188 446 157 348 q 146 313 146 265 l 146 246 q 146 154 187 107 q 223 65 287 65 q 386 65 417 164 q 428 198 428 246 z m 522 237 q 522 116 453 50 q 390 -10 287 -10 q 184 -10 121 50 q 52 116 52 237 l 52 274 q 52 395 121 460 q 184 521 287 521 q 390 521 453 460 q 522 395 522 274 z"},"N":{"x_min":0,"x_max":694,"ha":694,"o":"m 519 0 l 184 502 l 181 501 l 181 0 l 92 0 l 92 686 l 178 686 l 510 190 l 513 191 l 513 686 l 602 686 l 602 0 z"},"+":{"x_min":0,"x_max":615,"ha":615,"o":"m 348 297 l 563 297 l 563 213 l 348 213 l 348 0 l 265 0 l 265 213 l 51 213 l 51 297 l 265 297 l 265 511 l 348 511 z"},"G":{"x_min":0,"x_max":677,"ha":677,"o":"m 607 128 q 607 45 613 0 l 555 0 q 543 37 535 82 q 471 -10 344 -10 q 216 -10 142 66 q 62 147 62 298 l 62 388 q 62 538 142 620 q 217 696 344 696 q 458 696 529 634 q 607 565 607 445 l 509 445 q 509 527 461 570 q 419 607 344 607 q 212 607 174 488 q 160 446 160 388 l 160 298 q 160 132 269 92 q 303 79 344 79 q 430 79 470 122 q 511 165 511 261 l 511 274 l 317 274 l 317 362 l 607 362 z"},"q":{"x_min":0,"x_max":583,"ha":583,"o":"m 431 430 l 464 511 l 500 511 l 500 -180 l 406 -180 l 406 65 q 384 34 345 12 q 306 -10 258 -10 q 210 -10 174 6 q 137 22 110 54 q 52 123 52 244 l 52 255 q 52 387 113 458 q 168 521 259 521 q 373 521 431 430 z m 407 256 q 407 406 330 436 q 306 446 277 446 q 214 446 182 405 q 146 358 146 256 q 146 105 224 74 q 248 65 277 65 q 339 65 371 106 q 407 153 407 256 z"},"d":{"x_min":0,"x_max":583,"ha":583,"o":"m 406 446 l 406 720 l 500 720 l 500 0 l 430 0 q 425 19 417 70 q 360 -10 259 -10 q 168 -10 113 54 q 52 124 52 256 l 52 267 q 52 388 110 457 q 164 521 259 521 q 354 521 406 446 z m 146 255 q 146 105 223 74 q 247 65 276 65 q 407 65 407 255 q 407 406 329 436 q 305 446 276 446 q 214 446 182 405 q 146 358 146 255 z"},"1":{"x_min":0,"x_max":615,"ha":615,"o":"m 97 619 q 214 631 339 686 l 377 686 l 377 89 l 557 89 l 557 0 l 99 0 l 99 89 l 279 89 l 279 555 l 97 555 z"},"5":{"x_min":0,"x_max":615,"ha":615,"o":"m 190 396 q 254 447 320 447 q 385 447 426 428 q 467 409 494 378 q 545 318 545 222 q 545 119 480 54 q 416 -10 308 -10 q 202 -10 136 56 q 73 119 71 214 l 169 214 q 171 154 212 116 q 250 79 308 79 q 368 79 406 116 q 447 155 447 225 q 447 284 410 322 q 371 363 312 363 q 226 363 183 294 l 95 307 l 123 686 l 509 686 l 509 597 l 205 597 z"}}}
